<svg width="1440" height="1024" viewBox="0 0 1440 1024" fill="none" xmlns="http://www.w3.org/2000/svg">
<g clip-path="url(#clip0_158_9)">
<rect width="1440" height="1024" fill="white"/>
<path d="M1486 190C1486 331.385 1428.92 446 1358.5 446C1288.08 446 1231 331.385 1231 190C1231 48.6151 1288.08 -66 1358.5 -66C1428.92 -66 1486 48.6151 1486 190Z" fill="#003558"/>
<path d="M1486 834C1486 975.385 1428.92 1090 1358.5 1090C1288.08 1090 1231 975.385 1231 834C1231 692.615 1288.08 578 1358.5 578C1428.92 578 1486 692.615 1486 834Z" fill="#003558"/>
<path d="M1512 578C1512 719.385 1454.92 834 1384.5 834C1314.08 834 1257 719.385 1257 578C1257 436.615 1314.08 322 1384.5 322C1454.92 322 1512 436.615 1512 578Z" fill="#FFCC6A"/>
<path d="M1565 277C1565 418.385 1507.92 533 1437.5 533C1367.08 533 1310 418.385 1310 277C1310 135.615 1367.08 21 1437.5 21C1507.92 21 1565 135.615 1565 277Z" fill="#FF981E"/>
<path d="M1565 789C1565 930.385 1507.92 1045 1437.5 1045C1367.08 1045 1310 930.385 1310 789C1310 647.615 1367.08 533 1437.5 533C1507.92 533 1565 647.615 1565 789Z" fill="#FF981E"/>
</g>
<defs>
<clipPath id="clip0_158_9">
<rect width="1440" height="1024" fill="white"/>
</clipPath>
</defs>
</svg>
