<svg width="100" height="100" viewBox="0 0 100 100" fill="none" xmlns="http://www.w3.org/2000/svg">
<path d="M50.5 27.25C52.5357 19.1905 60.2243 15.0753 76.9643 15C77.2319 14.999 77.4971 15.0511 77.7445 15.1534C77.9919 15.2556 78.2168 15.406 78.406 15.5957C78.5952 15.7855 78.7451 16.011 78.8471 16.2592C78.949 16.5073 79.001 16.7733 79 17.0417V53.7917C79 54.3332 78.7855 54.8525 78.4037 55.2353C78.022 55.6182 77.5042 55.8333 76.9643 55.8333C60.6786 55.8333 54.3869 59.1268 50.5 64M50.5 27.25C48.4643 19.1905 40.7757 15.0753 24.0357 15C23.7681 14.999 23.5029 15.0511 23.2555 15.1534C23.0081 15.2556 22.7832 15.406 22.594 15.5957C22.4048 15.7855 22.2549 16.011 22.1529 16.2592C22.051 16.5073 21.999 16.7733 22 17.0417V53.5454C22 54.8061 22.7787 55.8333 24.0357 55.8333C40.3214 55.8333 46.636 59.151 50.5 64M50.5 27.25V64" stroke="#FF6B00" stroke-width="8" stroke-linecap="round" stroke-linejoin="round"/>
<path d="M21.164 88.288C21.164 88.776 21.052 89.224 20.828 89.632C20.604 90.032 20.26 90.356 19.796 90.604C19.332 90.852 18.756 90.976 18.068 90.976H16.796V94H14.744V85.576H18.068C18.74 85.576 19.308 85.692 19.772 85.924C20.236 86.156 20.584 86.476 20.816 86.884C21.048 87.292 21.164 87.76 21.164 88.288ZM17.912 89.344C18.304 89.344 18.596 89.252 18.788 89.068C18.98 88.884 19.076 88.624 19.076 88.288C19.076 87.952 18.98 87.692 18.788 87.508C18.596 87.324 18.304 87.232 17.912 87.232H16.796V89.344H17.912ZM28.5443 90.544C28.5443 90.736 28.5323 90.936 28.5083 91.144H23.8643C23.8963 91.56 24.0283 91.88 24.2603 92.104C24.5003 92.32 24.7923 92.428 25.1363 92.428C25.6483 92.428 26.0043 92.212 26.2043 91.78H28.3883C28.2763 92.22 28.0723 92.616 27.7763 92.968C27.4883 93.32 27.1243 93.596 26.6843 93.796C26.2443 93.996 25.7523 94.096 25.2083 94.096C24.5523 94.096 23.9683 93.956 23.4563 93.676C22.9443 93.396 22.5443 92.996 22.2563 92.476C21.9683 91.956 21.8243 91.348 21.8243 90.652C21.8243 89.956 21.9643 89.348 22.2443 88.828C22.5323 88.308 22.9323 87.908 23.4443 87.628C23.9563 87.348 24.5443 87.208 25.2083 87.208C25.8563 87.208 26.4323 87.344 26.9363 87.616C27.4403 87.888 27.8323 88.276 28.1123 88.78C28.4003 89.284 28.5443 89.872 28.5443 90.544ZM26.4443 90.004C26.4443 89.652 26.3243 89.372 26.0843 89.164C25.8443 88.956 25.5443 88.852 25.1843 88.852C24.8403 88.852 24.5483 88.952 24.3083 89.152C24.0763 89.352 23.9323 89.636 23.8763 90.004H26.4443ZM31.6788 88.42C31.9188 88.052 32.2188 87.764 32.5788 87.556C32.9388 87.34 33.3388 87.232 33.7788 87.232V89.404H33.2148C32.7028 89.404 32.3188 89.516 32.0628 89.74C31.8068 89.956 31.6788 90.34 31.6788 90.892V94H29.6268V87.304H31.6788V88.42ZM36.8116 88.252C37.0116 87.94 37.2876 87.688 37.6396 87.496C37.9916 87.304 38.4036 87.208 38.8756 87.208C39.4276 87.208 39.9276 87.348 40.3756 87.628C40.8236 87.908 41.1756 88.308 41.4316 88.828C41.6956 89.348 41.8276 89.952 41.8276 90.64C41.8276 91.328 41.6956 91.936 41.4316 92.464C41.1756 92.984 40.8236 93.388 40.3756 93.676C39.9276 93.956 39.4276 94.096 38.8756 94.096C38.4116 94.096 37.9996 94 37.6396 93.808C37.2876 93.616 37.0116 93.368 36.8116 93.064V97.192H34.7596V87.304H36.8116V88.252ZM39.7396 90.64C39.7396 90.128 39.5956 89.728 39.3076 89.44C39.0276 89.144 38.6796 88.996 38.2636 88.996C37.8556 88.996 37.5076 89.144 37.2196 89.44C36.9396 89.736 36.7996 90.14 36.7996 90.652C36.7996 91.164 36.9396 91.568 37.2196 91.864C37.5076 92.16 37.8556 92.308 38.2636 92.308C38.6716 92.308 39.0196 92.16 39.3076 91.864C39.5956 91.56 39.7396 91.152 39.7396 90.64ZM49.5162 87.304V94H47.4642V93.088C47.2562 93.384 46.9722 93.624 46.6122 93.808C46.2602 93.984 45.8682 94.072 45.4362 94.072C44.9242 94.072 44.4722 93.96 44.0802 93.736C43.6882 93.504 43.3842 93.172 43.1682 92.74C42.9522 92.308 42.8442 91.8 42.8442 91.216V87.304H44.8842V90.94C44.8842 91.388 45.0002 91.736 45.2322 91.984C45.4642 92.232 45.7762 92.356 46.1682 92.356C46.5682 92.356 46.8842 92.232 47.1162 91.984C47.3482 91.736 47.4642 91.388 47.4642 90.94V87.304H49.5162ZM53.7141 94.096C53.1301 94.096 52.6101 93.996 52.1541 93.796C51.6981 93.596 51.3381 93.324 51.0741 92.98C50.8101 92.628 50.6621 92.236 50.6301 91.804H52.6581C52.6821 92.036 52.7901 92.224 52.9821 92.368C53.1741 92.512 53.4101 92.584 53.6901 92.584C53.9461 92.584 54.1421 92.536 54.2781 92.44C54.4221 92.336 54.4941 92.204 54.4941 92.044C54.4941 91.852 54.3941 91.712 54.1941 91.624C53.9941 91.528 53.6701 91.424 53.2221 91.312C52.7421 91.2 52.3421 91.084 52.0221 90.964C51.7021 90.836 51.4261 90.64 51.1941 90.376C50.9621 90.104 50.8461 89.74 50.8461 89.284C50.8461 88.9 50.9501 88.552 51.1581 88.24C51.3741 87.92 51.6861 87.668 52.0941 87.484C52.5101 87.3 53.0021 87.208 53.5701 87.208C54.4101 87.208 55.0701 87.416 55.5501 87.832C56.0381 88.248 56.3181 88.8 56.3901 89.488H54.4941C54.4621 89.256 54.3581 89.072 54.1821 88.936C54.0141 88.8 53.7901 88.732 53.5101 88.732C53.2701 88.732 53.0861 88.78 52.9581 88.876C52.8301 88.964 52.7661 89.088 52.7661 89.248C52.7661 89.44 52.8661 89.584 53.0661 89.68C53.2741 89.776 53.5941 89.872 54.0261 89.968C54.5221 90.096 54.9261 90.224 55.2381 90.352C55.5501 90.472 55.8221 90.672 56.0541 90.952C56.2941 91.224 56.4181 91.592 56.4261 92.056C56.4261 92.448 56.3141 92.8 56.0901 93.112C55.8741 93.416 55.5581 93.656 55.1421 93.832C54.7341 94.008 54.2581 94.096 53.7141 94.096ZM62.2405 85.576V90.616C62.2405 91.12 62.3645 91.508 62.6125 91.78C62.8605 92.052 63.2245 92.188 63.7045 92.188C64.1845 92.188 64.5525 92.052 64.8085 91.78C65.0645 91.508 65.1925 91.12 65.1925 90.616V85.576H67.2445V90.604C67.2445 91.356 67.0845 91.992 66.7645 92.512C66.4445 93.032 66.0125 93.424 65.4685 93.688C64.9325 93.952 64.3325 94.084 63.6685 94.084C63.0045 94.084 62.4085 93.956 61.8805 93.7C61.3605 93.436 60.9485 93.044 60.6445 92.524C60.3405 91.996 60.1885 91.356 60.1885 90.604V85.576H62.2405ZM73.9294 92.512H70.7854L70.2814 94H68.1334L71.1814 85.576H73.5574L76.6054 94H74.4334L73.9294 92.512ZM73.4014 90.928L72.3574 87.844L71.3254 90.928H73.4014ZM80.6891 85.576C81.5771 85.576 82.3531 85.752 83.0171 86.104C83.6811 86.456 84.1931 86.952 84.5531 87.592C84.9211 88.224 85.1051 88.956 85.1051 89.788C85.1051 90.612 84.9211 91.344 84.5531 91.984C84.1931 92.624 83.6771 93.12 83.0051 93.472C82.3411 93.824 81.5691 94 80.6891 94H77.5331V85.576H80.6891ZM80.5571 92.224C81.3331 92.224 81.9371 92.012 82.3691 91.588C82.8011 91.164 83.0171 90.564 83.0171 89.788C83.0171 89.012 82.8011 88.408 82.3691 87.976C81.9371 87.544 81.3331 87.328 80.5571 87.328H79.5851V92.224H80.5571Z" fill="white"/>
</svg>
